<svg width="290" height="475" viewBox="0 0 290 475" xmlns="http://www.w3.org/2000/svg" role="img">
    <!--
        Manually created/scripted with love by Adrian Preuß.
        © Copyright December 2025.
    -->
    <defs>
        <linearGradient id="rainbow" x1="0%" y1="1" x2="1" y2="0%">
            <stop offset="0%" stop-color="#00F2FF" />
            <stop offset="33%" stop-color="#001AFF" />
            <stop offset="66%" stop-color="#7000FF" />
            <stop offset="100%" stop-color="#FF007A" />
        </linearGradient>

        <filter id="glow" x="-100%" y="-100%" width="300%" height="300%">
            <feGaussianBlur stdDeviation="5" result="blur" />
            <feComposite in="SourceGraphic" in2="blur" operator="over" />
        </filter>

        <filter id="glow_segment" x="-100%" y="-100%" width="300%" height="300%">
            <feGaussianBlur stdDeviation="15" result="blur" />
            <feComposite in="SourceGraphic" in2="blur" operator="over" />
        </filter>
    </defs>
    <style type="text/css">
        * {
            font-family: Arial;
        }

        .on {
            fill: #FFFFFF !important;
            filter: url(#glow_segment) !important;
        }
    </style>

    <!-- Case -->
    <g id="case">
        <rect id="background" width="100%" height="100%" fill="#1E1E1E" />
        <polygon id="cover" points="10,10 280,10 280,355 10,430" fill="#000000" />

        <g id="rgb">
            <g filter="url(#glow)">
                <polygon points="10,440 280,365 280,375 10,450" fill="url(#rainbow)" opacity="0.8" />
            </g>
            <polygon points="10,440 280,365 280,375 10,450" fill="url(#rainbow)" />
        </g>
    </g>

    <!-- Logo -->
    <g id="logo" fill="#FFFFFF">
        <path id="L" d="M60.64,61.44c-3.22,0-6.44,0.02-9.66-0.01c-1.95-0.02-2.91-0.91-2.94-2.82c-0.05-2.77,0-5.55,0-8.32c0-1.07,0.37-1.96,1.31-2.53c0.94-0.57,1.26-0.4,1.26,0.69c0.02,2.72,0,5.44-0.01,8.15c-0.01,1.95,0.35,2.33,2.32,2.33c5.72,0.01,11.43,0,17.15,0.01c0.5,0,1.05-0.07,1.48,0.12c0.38,0.17,0.87,0.67,0.84,1c-0.03,0.44-0.41,0.99-0.8,1.23c-0.38,0.23-0.97,0.15-1.46,0.15c-3.17,0-6.33-0.01-9.5-0.01Z" />
        <path id="C" d="M88.18,61.44c-3.17,0-6.33,0.02-9.5-0.01c-2.02-0.02-3.02-0.88-3.09-2.89c-0.1-2.77-0.08-5.55-0.02-8.33c0.04-1.75,1.22-2.87,3.01-2.88c6.55-0.04,13.11-0.03,19.66-0.01c0.43,0,0.94,0.06,1.26,0.3c0.3,0.23,0.58,0.74,0.54,1.1c-0.03,0.34-0.41,0.82-0.75,0.94c-0.55,0.2-1.2,0.21-1.8,0.21c-5.61,0.02-11.22,0.01-16.83,0.02c-2.26,0-2.51,0.25-2.51,2.45c0,1.44-0.01,2.89,0,4.33c0.01,1.82,0.42,2.26,2.25,2.26c5.72,0.01,11.44,0,17.16,0.01c0.5,0,1.06-0.11,1.48,0.09c0.43,0.2,0.97,0.7,0.98,1.08c0.01,0.4-0.48,0.96-0.89,1.19c-0.39,0.22-0.97,0.13-1.47,0.13c-3.17,0.01-6.33,0.01-9.5,0Z" />
        <path id="-" d="M98.91,55.89c-1.05,0-2.1,0.03-3.15-0.01c-1.21-0.05-1.92-0.66-1.84-1.63c0.09-1.06,0.76-1.51,1.79-1.52c2.27-0.01,4.54-0.04,6.8,0c1.15,0.02,1.95,0.75,1.9,1.64c-0.07,1.14-1.02,1.42-1.85,1.52c-1.2,0.14-2.43,0.04-3.65,0.04Z" />
        <path id="P" d="M119.14,47.33c2.83,0,5.66-0.02,8.48,0.01c2.68,0.02,3.58,0.92,3.68,3.57c0.15,4.2-0.44,4.81-4.68,4.81c-5.21,0-10.43,0.03-15.64-0.02c-1.12-0.01-1.61,0.24-1.49,1.44c0.1,0.93,0.03,1.88,0.01,2.83c-0.01,0.79-0.23,1.47-1.19,1.46c-0.9,0-1.26-0.56-1.25-1.41c0-3.44-0.04-6.88,0.02-10.31c0.02-1.44,1.23-2.31,3.08-2.33c2.99-0.03,5.99-0.01,8.98-0.01M119.07,53.07c2.55,0.01,5.1,0.04,7.65-0.02c0.55-0.01,1.25-0.2,1.61-0.57c0.29-0.3,0.3-1.03,0.18-1.51c-0.2-0.83-0.92-0.97-1.7-0.96c-5.1,0.01-10.2,0-15.3,0c-1.42,0-2.04,0.5-2.03,1.57c0.01,1.01,0.55,1.46,1.95,1.48c1.4,0.02,3.95,0,6.5,0Z" />
        <path id="O" d="M146.61,61.44c-3,0-5.99,0.02-8.99-0.01c-2.27-0.02-3.21-0.98-3.24-3.26c-0.02-2.55-0.02-5.1,0.01-7.66c0.03-2.04,1.15-3.17,3.22-3.18c6.05-0.03,12.1-0.03,18.15,0c1.96,0.01,3.11,1.11,3.16,3.08c0.06,2.66,0.07,5.33-0.01,7.99c-0.06,2.09-1.06,3-3.14,3.02c-2.1,0.02-5.15,0-8.21,0ZM146.72,50.02c-2.6,0-5.21-0.02-7.81,0c-1.54,0.02-1.87,0.34-1.89,1.85c-0.03,1.72-0.02,3.43,0,5.15c0.02,1.48,0.39,1.91,1.86,1.92c5.21,0.03,10.41,0.02,15.62,0c1.39-0.01,1.8-0.42,1.84-1.77c0.04-1.77,0.04-3.54,0-5.32c-0.03-1.39-0.5-1.82-1.97-1.83c-1.53,0-4.08,0.01-6.63,0.01Z" />
        <path id="W" d="M174.3,61.61c-2.83,0-5.66,0.02-8.49-0.01c-2.66-0.02-3.74-1.12-3.75-3.74c0-2.72,0-5.44,0.01-8.16c0-0.33-0.04-0.68,0.04-0.99c0.18-0.73,0.48-1.42,1.41-1.34c0.9,0.07,1.19,0.72,1.2,1.52c0.03,2.05,0.03,4.11,0.04,6.16c0,0.67-0.02,1.33,0.01,2c0.06,1.42,0.53,1.9,1.91,1.93c1.44,0.03,2.89,0.02,4.33-0.01c1.55-0.04,2.05-0.57,2.06-2.15c0.01-2.33-0.01-4.66-0.01-6.99c0-0.39-0.12-0.88,0.07-1.14c0.35-0.49,0.88-1.17,1.33-1.16c0.42,0,1.12,0.74,1.2,1.24c0.18,1.14,0.07,2.32,0.06,3.49c0,1.55-0.05,3.11-0.02,4.66c0.03,1.51,0.49,1.96,2.01,2.01c1.44,0.05,2.89,0.05,4.33,0.02c1.48-0.03,1.99-0.53,2.01-2.02c0.02-2.33-0.02-4.66-0.02-6.99c0-0.5-0.12-1.06,0.07-1.48c0.2-0.43,0.7-0.96,1.09-0.98c0.39-0.02,0.87,0.48,1.2,0.86c0.18,0.21,0.16,0.64,0.16,0.97c0.03,2.94,0.08,5.88,0.07,8.82c-0.01,2.35-1.09,3.44-3.48,3.48c-3.11,0.03-6.06,0-9,0Z" />
        <path id="E" d="M202.3,61.44c-3.16,0-6.33,0.02-9.49,0c-2.38-0.02-3.09-0.71-3.12-3.06c-0.04-2.72-0.05-5.44-0.06-8.15c-0.01-1.34,0.56-2.2,1.86-2.62c0.62-0.2,1.3-0.27,1.95-0.27c6.11-0.02,12.21-0.01,18.32-0.01c1.79,0,2.44,0.36,2.44,1.31c0,0.9-0.68,1.24-2.49,1.26c-5.77,0.04-11.55,0.09-17.32,0.12c-0.99,0.01-1.94,0.03-2.04,1.37c-0.09,1.22,0.43,1.74,1.95,1.9c0.5,0.05,1,0.03,1.5,0.03c5.22,0,10.44,0,15.66,0c0.55,0,1.15-0.07,1.65,0.1c0.38,0.13,0.91,0.63,0.89,0.93c-0.03,0.44-0.4,1.03-0.79,1.23c-0.45,0.23-1.08,0.14-1.63,0.14c-5.44,0-10.88-0.01-16.32,0c-0.61,0-1.22,0.04-1.81,0.15c-0.75,0.14-1.1,0.64-1.11,1.43c-0.01,0.78,0.25,1.3,1.05,1.44c0.6,0.1,1.2,0.2,1.8,0.2c5.55,0.02,11.1,0,16.65,0.02c0.95,0,2.15-0.31,2.36,1.15c0.13,0.93-0.62,1.31-2.4,1.32c-3.17,0-6.33,0-9.5,0Z" />
        <path id="R" d="M229.71,47.33c2.83,0,5.66-0.01,8.5,0c2.76,0.02,3.73,0.95,3.76,3.67c0.02,1.69,0.24,3.45-1.53,4.64c-0.27,0.18-0.21,1.15-0.02,1.65c0.32,0.87,0.93,1.64,1.27,2.51c0.21,0.53,0.41,1.33,0.16,1.72c-0.31,0.47-2.12-0.08-2.44-0.66c-0.59-1.07-1.2-2.13-1.68-3.24c-0.6-1.39-1.52-1.98-3.09-1.94c-4.05,0.1-8.11,0.02-12.16,0.04c-2.04,0.01-2.43,0.4-2.45,2.42c-0.01,0.67,0.03,1.34-0.03,2c-0.06,0.73-0.42,1.43-1.21,1.25c-0.51-0.12-0.97-0.73-1.29-1.22c-0.18-0.27-0.07-0.76-0.06-1.14c0.02-2.83,0.04-5.66,0.08-8.5c0.03-2.09,1.06-3.13,3.21-3.16c3-0.04,6-0.01,9-0.01M229.89,53.07c2.55,0.01,5.1,0.03,7.64,0c1.31-0.02,1.91-0.6,1.78-1.64c-0.14-1.08-0.82-1.43-1.87-1.42c-5.1,0.03-10.19,0-15.29,0.01c-1.33,0-2.09,0.59-2.09,1.58c0,0.93,0.67,1.45,2.01,1.46c2.59,0.02,5.2,0,7.8,0Z" />
    </g>

    <!-- Temperature -->
    <g id="temp" fill="#FFFFFF">
        <text transform="matrix(1 0 0 1 47.7952 144.2749)" filter="url(#glow)" font-size="18px">TEMP</text>
        <text transform="matrix(1 0 0 1 218.9529 184.5333)" filter="url(#glow)" font-size="24px">°C</text>

        <g id="segments" fill="#1E1E1E" transform="scale(0.2) matrix(1 0 0 1 30 160) translate(0,-151.47914)">
            <!-- Segment 1 -->
            <g>
                <path id="S0_A" class="on" d="M276.25,1003.48v-104l-59-52l-14.75,13v143l36.88,32.5L276.25,1003.48z" />
                <path id="S0_B" class="on" d="M291,886.48h118l59-52l-14.75-13h-206.5l-14.75,13L291,886.48z" />
                <path id="S0_C" d="M423.75,899.48v104l36.88,32.5l36.88-32.5v-143l-14.75-13L423.75,899.48v104" />
                <path id="S0_D" class="on" d="M409,1016.48H291l-36.88,32.5l36.88,32.5h118l36.88-32.5L409,1016.48z" />
                <path id="S0_E" class="on" d="M423.75,1094.48v104l59,52l14.75-13v-143l-36.88-32.5L423.75,1094.48z" />
                <path id="S0_F" class="on" d="M409,1211.48H291l-59,52l14.75,13h206.5l14.75-13L409,1211.48z" />
                <path id="S0_G" d="M276.25,1198.48v-104l-36.88-32.5l-36.88,32.5v143l14.75,13L276.25,1198.48z" />
            </g>

            <!-- Segment 2 -->
            <g>
                <path id="S1_A" class="on" d="M631.25,1003.48v-104l-59-52l-14.75,13v143l36.88,32.5L631.25,1003.48z" />
                <path id="S1_B" class="on" d="M646,886.48h118l59-52l-14.75-13h-206.5l-14.75,13L646,886.48z" />
                <path id="S1_C" class="on" d="M778.75,899.48v104l36.88,32.5l36.88-32.5v-143l-14.75-13L778.75,899.48v104" />
                <path id="S1_D" d="M764,1016.48H646l-36.88,32.5l36.88,32.5h118l36.88-32.5L764,1016.48z" />
                <path id="S1_E" class="on" d="M778.75,1094.48v104l59,52l14.75-13v-143l-36.88-32.5L778.75,1094.48z" />
                <path id="S1_F" class="on" d="M764,1211.48H646l-59,52l14.75,13h206.5l14.75-13L764,1211.48z" />
                <path id="S1_G" class="on" d="M631.25,1198.48v-104l-36.88-32.5l-36.88,32.5v143l14.75,13L631.25,1198.48z" />
            </g>
        </g>
    </g>

    <!-- Speed -->
    <g id="rpm" fill="#FFFFFF">
        <text transform="matrix(1 0 0 1 203.9829 323.7748)" filter="url(#glow)" font-size="18px">RPM</text>

        <g id="segments" fill="#1E1E1E" transform="scale(0.2) matrix(1 0 0 1 30 160) translate(0,-151.47914)">
            <!-- Segment 1 -->
            <g>
                <path id="S2_A" d="M237.5,1533.56v-40.95l-22-20.47l-5.5,5.12v56.3l13.75,12.8L237.5,1533.56z"/>
                <path id="S2_B" d="M243,1487.5h44l22-20.47l-5.5-5.12h-77l-5.5,5.12L243,1487.5z"/>
                <path id="S2_C" d="M292.5,1492.62v40.95l13.75,12.8l13.75-12.8v-56.3l-5.5-5.12L292.5,1492.62v40.95"/>
                <path id="S2_D" d="M287,1538.68h-44l-13.75,12.8l13.75,12.8h44l13.75-12.8L287,1538.68z"/>
                <path id="S2_E" d="M292.5,1569.39v40.95l22,20.47l5.5-5.12v-56.3l-13.75-12.8L292.5,1569.39z"/>
                <path id="S2_F" d="M287,1615.46h-44l-22,20.47l5.5,5.12h77l5.5-5.12L287,1615.46z"/>
                <path id="S2_G" d="M237.5,1610.34v-40.95l-13.75-12.8l-13.75,12.8v56.3l5.5,5.12L237.5,1610.34z"/>
            </g>

            <!-- Segment 2 -->
            <g>
                <path id="S3_A" d="M372.5,1533.56v-40.95l-22-20.47l-5.5,5.12v56.3l13.75,12.8L372.5,1533.56z"/>
                <path id="S3_B" d="M378,1487.5h44l22-20.47l-5.5-5.12h-77l-5.5,5.12L378,1487.5z"/>
                <path id="S3_C" d="M427.5,1492.62v40.95l13.75,12.8l13.75-12.8v-56.3l-5.5-5.12L427.5,1492.62v40.95"/>
                <path id="S3_D" d="M422,1538.68h-44l-13.75,12.8l13.75,12.8h44l13.75-12.8L422,1538.68z"/>
                <path id="S3_E" d="M427.5,1569.39v40.95l22,20.47l5.5-5.12v-56.3l-13.75-12.8L427.5,1569.39z"/>
                <path id="S3_F" d="M422,1615.46h-44l-22,20.47l5.5,5.12h77l5.5-5.12L422,1615.46z"/>
                <path id="S3_G" d="M372.5,1610.34v-40.95l-13.75-12.8l-13.75,12.8v56.3l5.5,5.12L372.5,1610.34z"/>
            </g>

            <!-- Segment 3 -->
            <g>
                <path id="S4_A" d="M507.5,1533.56v-40.95l-22-20.47l-5.5,5.12v56.3l13.75,12.8L507.5,1533.56z"/>
                <path id="S4_B" d="M513,1487.5h44l22-20.47l-5.5-5.12h-77l-5.5,5.12L513,1487.5z"/>
                <path id="S4_C" d="M562.5,1492.62v40.95l13.75,12.8l13.75-12.8v-56.3l-5.5-5.12L562.5,1492.62v40.95"/>
                <path id="S4_D" d="M557,1538.68h-44l-13.75,12.8l13.75,12.8h44l13.75-12.8L557,1538.68z"/>
                <path id="S4_E" d="M562.5,1569.39v40.95l22,20.47l5.5-5.12v-56.3l-13.75-12.8L562.5,1569.39z"/>
                <path id="S4_F" d="M557,1615.46h-44l-22,20.47l5.5,5.12h77l5.5-5.12L557,1615.46z"/>
                <path id="S4_G" d="M507.5,1610.34v-40.95l-13.75-12.8l-13.75,12.8v56.3l5.5,5.12L507.5,1610.34z"/>
            </g>

            <!-- Segment 4 -->
            <g>
                <path id="S5_A" class="on" d="M642.5,1533.56v-40.95l-22-20.47l-5.5,5.12v56.3l13.75,12.8L642.5,1533.56z" />
                <path id="S5_B" class="on" d="M648,1487.5h44l22-20.47l-5.5-5.12h-77l-5.5,5.12L648,1487.5z" />
                <path id="S5_C" class="on" d="M697.5,1492.62v40.95l13.75,12.8l13.75-12.8v-56.3l-5.5-5.12L697.5,1492.62v40.95" />
                <path id="S5_D" d="M692,1538.68h-44l-13.75,12.8l13.75,12.8h44l13.75-12.8L692,1538.68z" />
                <path id="S5_E" class="on" d="M697.5,1569.39v40.95l22,20.47l5.5-5.12v-56.3l-13.75-12.8L697.5,1569.39z" />
                <path id="S5_F" class="on" d="M692,1615.46h-44l-22,20.47l5.5,5.12h77l5.5-5.12L692,1615.46z" />
                <path id="S5_G" class="on" d="M642.5,1610.34v-40.95l-13.75-12.8l-13.75,12.8v56.3l5.5,5.12L642.5,1610.34z" />
            </g>
        </g>
    </g>
</svg>